<svg width="64" height="64" viewBox="0 0 64 64" fill="none" xmlns="http://www.w3.org/2000/svg">
  <rect width="64" height="64" rx="10" fill="#1F8D57"/>
  <path d="M17 42V22H25.9C29 22 31.2 23.8 31.2 26.5C31.2 28.2 30.3 29.6 28.7 30.3C30.8 31 32 32.6 32 34.7C32 38.1 29.4 40.4 25.5 40.4H21.2V42H17ZM21.2 29.1H25C26.7 29.1 27.7 28.3 27.7 27C27.7 25.8 26.8 25 25.2 25H21.2V29.1ZM21.2 37.2H25.2C27.2 37.2 28.4 36.2 28.4 34.6C28.4 33 27.2 32 25.2 32H21.2V37.2Z" fill="white"/>
  <path d="M35 42V22H39.2V33.4L46.8 22H51V42H46.8V30.7L39.2 42H35Z" fill="white"/>
</svg>
